<?xml version="1.0" encoding="utf-8"?>
<!-- Generator: Adobe Illustrator 15.0.2, SVG Export Plug-In . SVG Version: 6.00 Build 0)  -->
<!DOCTYPE svg PUBLIC "-//W3C//DTD SVG 1.1//EN" "http://www.w3.org/Graphics/SVG/1.1/DTD/svg11.dtd">
<svg version="1.1" xmlns="http://www.w3.org/2000/svg" xmlns:xlink="http://www.w3.org/1999/xlink" x="0px" y="0px" width="280px"
	 height="66px" viewBox="0 0 280 66" enable-background="new 0 0 280 66" xml:space="preserve">
<g id="Layer_1">
	<rect fill="#CCCCCC" width="280" height="66"/>
	<path fill="#FFFFFF" d="M77.87,53.346l0.02-0.027h-0.04c0.004,0.006,0.01,0.01,0.013,0.017L77.87,53.346L77.87,53.346z"/>
	<path fill="#FF00FF" d="M49.743,44.32c0.035-0.063,0.074-0.122,0.11-0.185h-0.117l0.007,0.183V44.32z"/>
	<g>
		<path fill="#FCFCFC" d="M23.686,25.584c-0.54,0.444-0.81,1.032-0.81,1.764c0,0.732,0.33,1.314,0.99,1.746
			c0.66,0.432,2.184,0.942,4.572,1.53c2.388,0.588,4.242,1.47,5.562,2.646c1.32,1.177,1.98,2.892,1.98,5.148
			s-0.846,4.086-2.538,5.49c-1.692,1.404-3.918,2.105-6.678,2.105c-3.984,0-7.572-1.475-10.764-4.428l3.348-4.104
			c2.712,2.375,5.22,3.564,7.524,3.564c1.032,0,1.842-0.223,2.43-0.666c0.588-0.445,0.882-1.045,0.882-1.801
			s-0.312-1.355-0.936-1.799c-0.625-0.445-1.86-0.895-3.708-1.352c-2.928-0.695-5.07-1.602-6.426-2.717
			c-1.356-1.116-2.034-2.868-2.034-5.256c0-2.388,0.858-4.23,2.574-5.526c1.715-1.296,3.857-1.944,6.426-1.944
			c1.68,0,3.36,0.288,5.04,0.864c1.68,0.576,3.144,1.392,4.392,2.448l-2.844,4.104c-2.184-1.656-4.44-2.484-6.768-2.484
			C24.964,24.918,24.226,25.14,23.686,25.584z"/>
		<path fill="#FCFCFC" d="M40.768,20.562h5.616v25.165h-5.616V20.562z"/>
		<path fill="#FCFCFC" d="M63.231,25.422v20.305h-5.616V25.422h-7.128v-4.86h19.872v4.86H63.231z"/>
		<path fill="#FCFCFC" d="M92.606,20.562v5.004H80.078v5.184h11.269v4.789H80.078v5.219h12.924v4.969h-18.54V20.562H92.606z"/>
		<path fill="#FCFCFC" d="M107.51,45.727V20.562h5.616v20.161h10.729v5.004H107.51z"/>
		<path fill="#FCFCFC" d="M148.441,42.252c-2.544,2.484-5.676,3.727-9.396,3.727c-3.721,0-6.853-1.242-9.396-3.727
			s-3.815-5.574-3.815-9.27c0-3.695,1.271-6.786,3.815-9.27c2.544-2.484,5.676-3.726,9.396-3.726c3.72,0,6.852,1.242,9.396,3.726
			c2.544,2.484,3.816,5.575,3.816,9.27C152.258,36.678,150.985,39.768,148.441,42.252z M146.534,33c0-2.243-0.721-4.157-2.16-5.741
			c-1.44-1.584-3.211-2.376-5.311-2.376c-2.101,0-3.87,0.792-5.31,2.376c-1.44,1.584-2.16,3.498-2.16,5.741
			c0,2.245,0.72,4.153,2.16,5.725c1.439,1.572,3.209,2.357,5.31,2.357c2.1,0,3.87-0.785,5.311-2.357
			C145.813,37.152,146.534,35.244,146.534,33z"/>
		<path fill="#FCFCFC" d="M173.354,32.91h5.651v8.928c-2.496,2.785-5.952,4.176-10.368,4.176c-3.696,0-6.798-1.223-9.306-3.672
			c-2.508-2.447-3.762-5.537-3.762-9.27c0-3.731,1.277-6.845,3.834-9.342c2.556-2.496,5.64-3.744,9.252-3.744
			c3.611,0,6.75,1.188,9.414,3.564l-2.916,4.212c-1.129-0.984-2.166-1.662-3.114-2.034c-0.948-0.372-1.975-0.558-3.078-0.558
			c-2.136,0-3.937,0.727-5.399,2.178c-1.465,1.452-2.196,3.366-2.196,5.741c0,2.377,0.702,4.28,2.105,5.708
			c1.404,1.428,3.078,2.141,5.022,2.141s3.563-0.371,4.86-1.115V32.91z"/>
		<path fill="#FCFCFC" d="M205.177,42.252c-2.544,2.484-5.676,3.727-9.396,3.727c-3.721,0-6.853-1.242-9.396-3.727
			s-3.815-5.574-3.815-9.27c0-3.695,1.271-6.786,3.815-9.27c2.544-2.484,5.676-3.726,9.396-3.726c3.72,0,6.852,1.242,9.396,3.726
			c2.544,2.484,3.816,5.575,3.816,9.27C208.993,36.678,207.721,39.768,205.177,42.252z M203.27,33c0-2.243-0.721-4.157-2.16-5.741
			c-1.44-1.584-3.211-2.376-5.311-2.376c-2.101,0-3.87,0.792-5.31,2.376c-1.44,1.584-2.16,3.498-2.16,5.741
			c0,2.245,0.72,4.153,2.16,5.725c1.439,1.572,3.209,2.357,5.31,2.357c2.1,0,3.87-0.785,5.311-2.357
			C202.549,37.152,203.27,35.244,203.27,33z"/>
	</g>
</g>
<g id="Layer_2">
</g>
</svg>
